<svg width="266" height="25" viewBox="0 0 266 25" fill="none" xmlns="http://www.w3.org/2000/svg">
<path d="M6.584 24V4.352H0.472V0.639999H16.728V4.352H10.616V24H6.584ZM27.8195 24.32C26.3262 24.32 25.0248 24.032 23.9155 23.456C22.8062 22.88 21.9422 22.08 21.3235 21.056C20.7262 20.0107 20.4275 18.7947 20.4275 17.408V12.992C20.4275 11.6053 20.7262 10.4 21.3235 9.376C21.9422 8.33067 22.8062 7.52 23.9155 6.944C25.0248 6.368 26.3262 6.08 27.8195 6.08C29.2915 6.08 30.5715 6.368 31.6595 6.944C32.7688 7.52 33.6222 8.33067 34.2195 9.376C34.8382 10.4 35.1475 11.6053 35.1475 12.992V16.16H24.2995V17.408C24.2995 18.6453 24.5982 19.584 25.1955 20.224C25.7928 20.8427 26.6782 21.152 27.8515 21.152C28.7475 21.152 29.4728 21.0027 30.0275 20.704C30.5822 20.384 30.9342 19.9253 31.0835 19.328H35.0195C34.7208 20.8427 33.9102 22.0587 32.5875 22.976C31.2862 23.872 29.6968 24.32 27.8195 24.32ZM31.2755 13.92V12.96C31.2755 11.744 30.9875 10.816 30.4115 10.176C29.8355 9.51467 28.9715 9.184 27.8195 9.184C26.6675 9.184 25.7928 9.51467 25.1955 10.176C24.5982 10.8373 24.2995 11.776 24.2995 12.992V13.664L31.5635 13.6L31.2755 13.92ZM47.071 24.32C45.5777 24.32 44.2657 24.0427 43.135 23.488C42.0257 22.912 41.1617 22.112 40.543 21.088C39.9243 20.0427 39.615 18.816 39.615 17.408V12.992C39.615 11.5627 39.9243 10.336 40.543 9.312C41.1617 8.288 42.0257 7.49867 43.135 6.944C44.2657 6.368 45.5777 6.08 47.071 6.08C49.2897 6.08 51.0603 6.656 52.383 7.808C53.7057 8.93867 54.399 10.4853 54.463 12.448H50.463C50.399 11.5307 50.0683 10.8267 49.471 10.336C48.895 9.824 48.095 9.568 47.071 9.568C46.0043 9.568 45.1617 9.86667 44.543 10.464C43.9243 11.04 43.615 11.872 43.615 12.96V17.408C43.615 18.496 43.9243 19.3387 44.543 19.936C45.1617 20.5333 46.0043 20.832 47.071 20.832C48.095 20.832 48.895 20.5867 49.471 20.096C50.0683 19.584 50.399 18.8693 50.463 17.952H54.463C54.399 19.9147 53.7057 21.472 52.383 22.624C51.0603 23.7547 49.2897 24.32 47.071 24.32ZM59.0265 24V0.639999H63.0265V6.4L62.9305 9.76H64.0185L62.9305 10.688C62.9305 9.23733 63.3465 8.10667 64.1785 7.296C65.0318 6.48533 66.1945 6.08 67.6665 6.08C69.3945 6.08 70.7705 6.656 71.7945 7.808C72.8398 8.96 73.3625 10.5067 73.3625 12.448V24H69.3625V12.864C69.3625 11.7973 69.0852 10.976 68.5305 10.4C67.9758 9.824 67.1972 9.536 66.1945 9.536C65.2132 9.536 64.4345 9.83467 63.8585 10.432C63.3038 11.0293 63.0265 11.8827 63.0265 12.992V24H59.0265ZM80.23 15.296V11.584H90.47V15.296H80.23ZM97.4015 24V0.639999H105.178C106.735 0.639999 108.09 0.938666 109.242 1.536C110.415 2.13333 111.322 2.976 111.962 4.064C112.602 5.13067 112.922 6.38933 112.922 7.84C112.922 9.26933 112.591 10.528 111.93 11.616C111.29 12.704 110.394 13.5467 109.242 14.144C108.09 14.7413 106.735 15.04 105.178 15.04H101.402V24H97.4015ZM101.402 11.424H105.178C106.287 11.424 107.172 11.104 107.834 10.464C108.516 9.80267 108.858 8.928 108.858 7.84C108.858 6.73067 108.516 5.856 107.834 5.216C107.172 4.576 106.287 4.256 105.178 4.256H101.402V11.424ZM126.413 24C125.261 24 124.248 23.7653 123.373 23.296C122.52 22.8267 121.848 22.1653 121.357 21.312C120.866 20.4373 120.621 19.4347 120.621 18.304V4.256H114.989V0.639999H124.621V18.304C124.621 18.944 124.802 19.456 125.165 19.84C125.549 20.2027 126.061 20.384 126.701 20.384H132.013V24H126.413ZM140.961 24.32C139.147 24.32 137.718 23.84 136.673 22.88C135.627 21.92 135.105 20.6293 135.105 19.008C135.105 17.28 135.681 15.9467 136.833 15.008C137.985 14.0693 139.617 13.6 141.729 13.6H146.113V12.096C146.113 11.2427 145.835 10.5813 145.281 10.112C144.726 9.62133 143.969 9.376 143.009 9.376C142.134 9.376 141.409 9.568 140.833 9.952C140.257 10.336 139.915 10.8587 139.809 11.52H135.905C136.097 9.856 136.843 8.53333 138.145 7.552C139.446 6.57067 141.11 6.08 143.137 6.08C145.291 6.08 146.987 6.624 148.225 7.712C149.483 8.77867 150.113 10.2293 150.113 12.064V24H146.241V20.928H145.601L146.241 20.064C146.241 21.3653 145.761 22.4 144.801 23.168C143.841 23.936 142.561 24.32 140.961 24.32ZM142.273 21.312C143.403 21.312 144.321 21.024 145.025 20.448C145.75 19.872 146.113 19.1253 146.113 18.208V16.064H141.793C140.982 16.064 140.331 16.2987 139.841 16.768C139.35 17.2373 139.105 17.856 139.105 18.624C139.105 19.456 139.382 20.1173 139.937 20.608C140.513 21.0773 141.291 21.312 142.273 21.312ZM162.196 24.32C160.703 24.32 159.391 24.0427 158.26 23.488C157.151 22.912 156.287 22.112 155.668 21.088C155.049 20.0427 154.74 18.816 154.74 17.408V12.992C154.74 11.5627 155.049 10.336 155.668 9.312C156.287 8.288 157.151 7.49867 158.26 6.944C159.391 6.368 160.703 6.08 162.196 6.08C164.415 6.08 166.185 6.656 167.508 7.808C168.831 8.93867 169.524 10.4853 169.588 12.448H165.588C165.524 11.5307 165.193 10.8267 164.596 10.336C164.02 9.824 163.22 9.568 162.196 9.568C161.129 9.568 160.287 9.86667 159.668 10.464C159.049 11.04 158.74 11.872 158.74 12.96V17.408C158.74 18.496 159.049 19.3387 159.668 19.936C160.287 20.5333 161.129 20.832 162.196 20.832C163.22 20.832 164.02 20.5867 164.596 20.096C165.193 19.584 165.524 18.8693 165.588 17.952H169.588C169.524 19.9147 168.831 21.472 167.508 22.624C166.185 23.7547 164.415 24.32 162.196 24.32ZM181.32 24.32C179.826 24.32 178.525 24.032 177.416 23.456C176.306 22.88 175.442 22.08 174.824 21.056C174.226 20.0107 173.928 18.7947 173.928 17.408V12.992C173.928 11.6053 174.226 10.4 174.824 9.376C175.442 8.33067 176.306 7.52 177.416 6.944C178.525 6.368 179.826 6.08 181.32 6.08C182.792 6.08 184.072 6.368 185.16 6.944C186.269 7.52 187.122 8.33067 187.72 9.376C188.338 10.4 188.648 11.6053 188.648 12.992V16.16H177.8V17.408C177.8 18.6453 178.098 19.584 178.696 20.224C179.293 20.8427 180.178 21.152 181.352 21.152C182.248 21.152 182.973 21.0027 183.528 20.704C184.082 20.384 184.434 19.9253 184.584 19.328H188.52C188.221 20.8427 187.41 22.0587 186.088 22.976C184.786 23.872 183.197 24.32 181.32 24.32ZM184.776 13.92V12.96C184.776 11.744 184.488 10.816 183.912 10.176C183.336 9.51467 182.472 9.184 181.32 9.184C180.168 9.184 179.293 9.51467 178.696 10.176C178.098 10.8373 177.8 11.776 177.8 12.992V13.664L185.064 13.6L184.776 13.92ZM200.475 24.32C199.558 24.32 198.822 24.0533 198.267 23.52C197.734 22.9867 197.467 22.2613 197.467 21.344C197.467 20.4267 197.734 19.7013 198.267 19.168C198.822 18.6133 199.558 18.336 200.475 18.336C201.392 18.336 202.118 18.6133 202.651 19.168C203.206 19.7013 203.483 20.4267 203.483 21.344C203.483 22.2613 203.206 22.9867 202.651 23.52C202.118 24.0533 201.392 24.32 200.475 24.32ZM212.527 24V6.4H216.431V9.76H217.519L216.431 10.688C216.431 9.23733 216.847 8.10667 217.679 7.296C218.532 6.48533 219.695 6.08 221.167 6.08C222.895 6.08 224.271 6.656 225.295 7.808C226.34 8.96 226.863 10.5067 226.863 12.448V24H222.863V12.864C222.863 11.7973 222.585 10.976 222.031 10.4C221.476 9.824 220.697 9.536 219.695 9.536C218.713 9.536 217.935 9.83467 217.359 10.432C216.804 11.0293 216.527 11.8827 216.527 12.992V24H212.527ZM238.882 24.32C237.389 24.32 236.087 24.032 234.978 23.456C233.869 22.88 233.005 22.08 232.386 21.056C231.789 20.0107 231.49 18.7947 231.49 17.408V12.992C231.49 11.6053 231.789 10.4 232.386 9.376C233.005 8.33067 233.869 7.52 234.978 6.944C236.087 6.368 237.389 6.08 238.882 6.08C240.354 6.08 241.634 6.368 242.722 6.944C243.831 7.52 244.685 8.33067 245.282 9.376C245.901 10.4 246.21 11.6053 246.21 12.992V16.16H235.362V17.408C235.362 18.6453 235.661 19.584 236.258 20.224C236.855 20.8427 237.741 21.152 238.914 21.152C239.81 21.152 240.535 21.0027 241.09 20.704C241.645 20.384 241.997 19.9253 242.146 19.328H246.082C245.783 20.8427 244.973 22.0587 243.65 22.976C242.349 23.872 240.759 24.32 238.882 24.32ZM242.338 13.92V12.96C242.338 11.744 242.05 10.816 241.474 10.176C240.898 9.51467 240.034 9.184 238.882 9.184C237.73 9.184 236.855 9.51467 236.258 10.176C235.661 10.8373 235.362 11.776 235.362 12.992V13.664L242.626 13.6L242.338 13.92ZM259.958 24C258.272 24 256.95 23.5307 255.99 22.592C255.051 21.6533 254.582 20.3627 254.582 18.72V10.016H249.814V6.4H254.582V1.44H258.614V6.4H265.366V10.016H258.614V18.72C258.614 19.8293 259.158 20.384 260.246 20.384H265.046V24H259.958Z" fill="white"/>
</svg>
